<?xml version="1.0" encoding="utf-8"?>
<!-- Generator: Adobe Illustrator 16.0.0, SVG Export Plug-In . SVG Version: 6.00 Build 0)  -->
<!DOCTYPE svg PUBLIC "-//W3C//DTD SVG 1.1//EN" "http://www.w3.org/Graphics/SVG/1.1/DTD/svg11.dtd">
<svg version="1.1" id="Layer_1" xmlns="http://www.w3.org/2000/svg" xmlns:xlink="http://www.w3.org/1999/xlink" x="0px" y="0px"
	  viewBox="0 0 1000 100" enable-background="new 0 0 1000 100" xml:space="preserve">
<g>
	<path fill="#88BDBC" d="M111.13,37.24v34.26H98.24V58.69L86.43,71.51h-25.2c-2.35,0-4.56-0.44-6.62-1.32
		c-2.06-0.88-3.86-2.1-5.4-3.65c-1.54-1.55-2.75-3.39-3.64-5.52c-0.89-2.12-1.33-4.43-1.33-6.92c0-2.28,0.48-4.44,1.44-6.49
		c0.96-2.05,2.24-3.83,3.85-5.36c1.61-1.53,3.49-2.74,5.65-3.65c2.16-0.91,4.46-1.36,6.91-1.36H111.13z M98.17,51.46H57.63v5.98
		h40.54V51.46z"/>
	<path fill="#88BDBC" d="M155.91,54.8c0,2.44-0.48,4.68-1.44,6.72c-0.96,2.05-2.24,3.81-3.85,5.28c-1.61,1.48-3.49,2.63-5.65,3.46
		c-2.16,0.83-4.46,1.24-6.91,1.24h-12.17c-5.52,0-8.28-2.38-8.28-7.15c0-4.61,2.76-6.91,8.28-6.91h16.7V54.1
		c0-2.28,0.44-4.44,1.33-6.49c0.89-2.05,2.11-3.83,3.67-5.36c1.56-1.53,3.42-2.74,5.58-3.65c2.16-0.91,4.54-1.36,7.13-1.36h12.82
		c5.47,0,8.21,2.41,8.21,7.23c0,2.07-0.71,3.76-2.12,5.05c-1.42,1.3-3.44,1.94-6.08,1.94h-17.21V54.8z"/>
	<path fill="#88BDBC" d="M232.38,64.2c0,4.87-2.74,7.3-8.21,7.3h-10.73c-3.17,0-5.95-0.47-8.35-1.4c-2.4-0.93-4.43-2.2-6.08-3.81
		c-1.66-1.6-2.9-3.51-3.74-5.71c-0.84-2.2-1.26-4.6-1.26-7.19v-2.33h-0.72c-2.45,0-4.31-0.58-5.58-1.75
		c-1.27-1.17-1.91-2.86-1.91-5.09c0-2.49,0.64-4.27,1.91-5.36c1.27-1.09,3.13-1.63,5.58-1.63H194V23.34c0-0.98,0.17-1.92,0.5-2.8
		c0.34-0.88,0.82-1.64,1.44-2.29c0.62-0.65,1.33-1.17,2.12-1.55c0.79-0.39,1.67-0.58,2.63-0.58c0.86,0,1.67,0.19,2.41,0.58
		c0.74,0.39,1.39,0.92,1.94,1.59c0.55,0.67,1,1.45,1.33,2.33c0.33,0.88,0.5,1.79,0.5,2.72v13.91h6.62c5.47,0,8.21,2.28,8.21,6.84
		c0,4.66-2.74,6.99-8.21,6.99h-6.62v6.21h17.28C229.64,57.29,232.38,59.59,232.38,64.2z"/>
	<path fill="#88BDBC" d="M251.67,64.83c0,2.07-0.66,3.73-1.98,4.97c-1.32,1.24-2.89,1.86-4.72,1.86c-4.56,0-6.84-2.49-6.84-7.46
		V52.94c0-10.46,5.54-15.69,16.63-15.69h28.01c5.52,0,8.28,2.41,8.28,7.23c0,2.07-0.7,3.76-2.09,5.05c-1.39,1.3-3.46,1.94-6.19,1.94
		h-31.1V64.83z"/>
	<path fill="#88BDBC" d="M348.22,37.24c2.45,0,4.69,0.39,6.73,1.17c2.04,0.78,3.79,1.9,5.26,3.38c1.46,1.48,2.62,3.25,3.46,5.32
		c0.84,2.07,1.26,4.4,1.26,6.99c0,11.6-5.57,17.4-16.7,17.4h-34.99c-2.21,0-4.33-0.43-6.37-1.28c-2.04-0.85-3.85-2.03-5.44-3.54
		c-1.58-1.5-2.84-3.29-3.78-5.36c-0.94-2.07-1.4-4.35-1.4-6.84c0-2.59,0.43-4.95,1.3-7.07c0.86-2.12,2.06-3.94,3.6-5.44
		c1.54-1.5,3.34-2.67,5.4-3.5c2.06-0.83,4.3-1.24,6.7-1.24H348.22z M351.97,57.45v-5.98h-42.34v5.98H351.97z"/>
	<path fill="#88BDBC" d="M398.98,36.7c5.52,0,8.28,2.44,8.28,7.3c0,4.35-2.76,6.53-8.28,6.53H379.4c-5.57,0-8.35-2.18-8.35-6.53
		c0-4.87,2.78-7.3,8.35-7.3H398.98z"/>
	<path fill="#88BDBC" d="M459.32,50.37h-30.67V64.2c0,4.92-1.99,7.38-5.98,7.38c-4.56,0-6.84-2.46-6.84-7.38V37.17h84.1
		c2.26,0,4.39,0.43,6.41,1.28c2.02,0.85,3.78,2.05,5.29,3.57c1.51,1.53,2.71,3.33,3.6,5.4c0.89,2.07,1.33,4.35,1.33,6.84v9.94
		c0,4.92-2.09,7.38-6.26,7.38c-4.9,0-7.34-2.46-7.34-7.38V50.37h-30.74v14.14c0,0.93-0.17,1.83-0.5,2.68
		c-0.34,0.85-0.79,1.61-1.37,2.25s-1.25,1.17-2.02,1.55c-0.77,0.39-1.56,0.58-2.38,0.58c-0.91,0-1.78-0.19-2.59-0.58
		c-0.82-0.39-1.52-0.91-2.12-1.55c-0.6-0.65-1.07-1.4-1.4-2.25c-0.34-0.86-0.5-1.75-0.5-2.68V50.37z"/>
	<path fill="#88BDBC" d="M574.95,37.24c2.45,0,4.69,0.39,6.73,1.17c2.04,0.78,3.79,1.9,5.26,3.38c1.46,1.48,2.62,3.25,3.46,5.32
		c0.84,2.07,1.26,4.4,1.26,6.99c0,11.6-5.57,17.4-16.7,17.4h-34.99c-2.21,0-4.33-0.43-6.37-1.28c-2.04-0.85-3.85-2.03-5.44-3.54
		c-1.58-1.5-2.84-3.29-3.78-5.36c-0.94-2.07-1.4-4.35-1.4-6.84c0-2.59,0.43-4.95,1.3-7.07c0.86-2.12,2.06-3.94,3.6-5.44
		c1.54-1.5,3.34-2.67,5.4-3.5c2.06-0.83,4.29-1.24,6.7-1.24H574.95z M578.7,57.45v-5.98h-42.34v5.98H578.7z"/>
	<path fill="#88BDBC" d="M657.54,16.11c0.91,0,1.79,0.19,2.63,0.58c0.84,0.39,1.57,0.91,2.2,1.55c0.62,0.65,1.12,1.41,1.48,2.29
		c0.36,0.88,0.54,1.81,0.54,2.8v48.17h-48.6c-2.54,0-4.93-0.44-7.16-1.32c-2.23-0.88-4.18-2.1-5.83-3.65
		c-1.66-1.55-2.96-3.38-3.92-5.48s-1.44-4.36-1.44-6.8c0-2.33,0.43-4.53,1.3-6.6c0.86-2.07,2.04-3.88,3.53-5.44
		c1.49-1.55,3.24-2.78,5.26-3.69c2.02-0.91,4.18-1.36,6.48-1.36h37.51V23.34c0-0.93,0.16-1.84,0.47-2.72
		c0.31-0.88,0.73-1.66,1.26-2.33c0.53-0.67,1.16-1.2,1.91-1.59C655.87,16.31,656.67,16.11,657.54,16.11z M651.49,57.45v-7.07h-40.61
		v7.07H651.49z"/>
	<path fill="#88BDBC" d="M731.05,37.24c2.64,0,4.72,0.58,6.23,1.75c1.51,1.17,2.27,3.15,2.27,5.94c0,1.19-0.53,2.41-1.58,3.65
		c-1.06,1.24-2.69,2.64-4.9,4.2l-6.62,4.66h4.61c5.47,0,8.21,2.36,8.21,7.07c0,2.17-0.71,3.88-2.12,5.13
		c-1.42,1.24-3.44,1.86-6.08,1.86H688.5c-2.3,0-4.48-0.43-6.52-1.28c-2.04-0.85-3.84-2.04-5.4-3.57c-1.56-1.53-2.8-3.33-3.71-5.4
		c-0.91-2.07-1.37-4.32-1.37-6.76c0-2.43,0.48-4.7,1.44-6.8s2.24-3.92,3.85-5.48c1.61-1.55,3.49-2.77,5.65-3.65
		c2.16-0.88,4.46-1.32,6.91-1.32H731.05z M718.3,51.15H684.9v6.29h24.41L718.3,51.15z"/>
	<path fill="#88BDBC" d="M759.99,64.83c0,2.07-0.66,3.73-1.98,4.97c-1.32,1.24-2.89,1.86-4.72,1.86c-4.56,0-6.84-2.49-6.84-7.46
		V52.94c0-10.46,5.54-15.69,16.63-15.69h28.01c5.52,0,8.28,2.41,8.28,7.23c0,2.07-0.7,3.76-2.09,5.05c-1.39,1.3-3.46,1.94-6.19,1.94
		h-31.1V64.83z"/>
	<path fill="#88BDBC" d="M805.64,37.24h58.39c2.3,0,4.46,0.43,6.48,1.28c2.02,0.85,3.78,2.05,5.29,3.57c1.51,1.53,2.7,3.33,3.56,5.4
		c0.86,2.07,1.3,4.33,1.3,6.76v9.94c0,4.92-2.09,7.38-6.26,7.38c-4.9,0-7.34-2.46-7.34-7.38V50.37h-48.6V64.2
		c0,4.92-1.99,7.38-5.98,7.38c-4.56,0-6.84-2.46-6.84-7.38V37.24z"/>
	<path fill="#88BDBC" d="M947.19,37.24c2.64,0,4.72,0.58,6.23,1.75c1.51,1.17,2.27,3.15,2.27,5.94c0,1.19-0.53,2.41-1.58,3.65
		c-1.06,1.24-2.69,2.64-4.9,4.2l-6.62,4.66h4.61c5.47,0,8.21,2.36,8.21,7.07c0,2.17-0.71,3.88-2.12,5.13
		c-1.42,1.24-3.44,1.86-6.08,1.86h-42.55c-2.3,0-4.48-0.43-6.52-1.28c-2.04-0.85-3.84-2.04-5.4-3.57c-1.56-1.53-2.8-3.33-3.71-5.4
		c-0.91-2.07-1.37-4.32-1.37-6.76c0-2.43,0.48-4.7,1.44-6.8s2.24-3.92,3.85-5.48c1.61-1.55,3.49-2.77,5.65-3.65
		c2.16-0.88,4.46-1.32,6.91-1.32H947.19z M934.45,51.15h-33.41v6.29h24.41L934.45,51.15z"/>
</g>
<g>
</g>
<g>
</g>
<g>
</g>
<g>
</g>
<g>
</g>
<g>
</g>
<g>
</g>
<g>
</g>
<g>
</g>
<g>
</g>
<g>
</g>
<g>
</g>
<g>
</g>
<g>
</g>
<g>
</g>
</svg>
